HIERARCHY
ROOT RootJoint
{
    OFFSET   0.000000   0.000000   0.000000
    CHANNELS 6 Xposition Yposition Zposition Xrotation Yrotation Zrotation
    JOINT pelvis_lowerback
    {
        OFFSET   0.000000   0.093605   0.000000
        CHANNELS 3 Xrotation Yrotation Zrotation
        JOINT lowerback_torso
        {
            OFFSET   0.000000   0.100000   0.000000
            CHANNELS 3 Xrotation Yrotation Zrotation
            JOINT torso_head
            {
                OFFSET   0.000000   0.282350   0.000000
                CHANNELS 3 Xrotation Yrotation Zrotation
                End Site
                {
                    OFFSET   0.000000   0.192650   0.000000
                }
            }
            JOINT rTorso_Clavicle
            {
                OFFSET  -0.001000   0.157500   0.000000
                CHANNELS 3 Xrotation Yrotation Zrotation
                JOINT rShoulder
                {
                    OFFSET  -0.117647   0.000000   0.000000
                    CHANNELS 3 Xrotation Yrotation Zrotation
                    JOINT rElbow
                    {
                        OFFSET  -0.245000   0.000000   0.000000
                        CHANNELS 3 Xrotation Yrotation Zrotation
                        JOINT rWrist
                        {
                            OFFSET  -0.240000   0.000000   0.000000
                            CHANNELS 3 Xrotation Yrotation Zrotation
                            End Site
                            {
                                OFFSET  -0.116353  -0.002500   0.000000
                            }
                        }
                    }
                }
            }
            JOINT lTorso_Clavicle
            {
                OFFSET   0.001000   0.157500   0.000000
                CHANNELS 3 Xrotation Yrotation Zrotation
                JOINT lShoulder
                {
                    OFFSET   0.117647   0.000000   0.000000
                    CHANNELS 3 Xrotation Yrotation Zrotation
                    JOINT lElbow
                    {
                        OFFSET   0.245000   0.000000   0.000000
                        CHANNELS 3 Xrotation Yrotation Zrotation
                        JOINT lWrist
                        {
                            OFFSET   0.240000   0.000000   0.000000
                            CHANNELS 3 Xrotation Yrotation Zrotation
                            End Site
                            {
                                OFFSET   0.116353  -0.002500   0.000000
                            }
                        }
                    }
                }
            }
        }
    }
    JOINT rHip
    {
        OFFSET  -0.100000  -0.051395   0.000000
        CHANNELS 3 Xrotation Yrotation Zrotation
        JOINT rKnee
        {
            OFFSET   0.000000  -0.410000   0.000000
            CHANNELS 3 Xrotation Yrotation Zrotation
            JOINT rAnkle
            {
                OFFSET   0.000000  -0.390000   0.000000
                CHANNELS 3 Xrotation Yrotation Zrotation
                JOINT rToeJoint
                {
                    OFFSET   0.000000  -0.050000   0.130000
                    CHANNELS 3 Xrotation Yrotation Zrotation
                    End Site
                    {
                        OFFSET  -0.010000   0.002000   0.060000
                    }
                }
            }
        }
    }
    JOINT lHip
    {
        OFFSET   0.100000  -0.051395   0.000000
        CHANNELS 3 Xrotation Yrotation Zrotation
        JOINT lKnee
        {
            OFFSET   0.000000  -0.410000   0.000000
            CHANNELS 3 Xrotation Yrotation Zrotation
            JOINT lAnkle
            {
                OFFSET   0.000000  -0.390000   0.000000
                CHANNELS 3 Xrotation Yrotation Zrotation
                JOINT lToeJoint
                {
                    OFFSET   0.000000  -0.050000   0.130000
                    CHANNELS 3 Xrotation Yrotation Zrotation
                    End Site
                    {
                        OFFSET   0.010000   0.002000   0.060000
                    }
                }
            }
        }
    }
}
MOTION
Frames: 12
Frame Time:   0.008333
 -2.376719   0.925631   3.975860   0.000000   0.000000   0.000000   0.000000   0.000000   0.000000   0.000000   0.000000   0.000000   0.000000   0.000000   0.000000   0.000000   0.000000   0.000000   0.000000   0.000000   0.000000   0.000000   0.000000   0.000000   0.000000   0.000000   0.000000   0.000000   0.000000   0.000000   0.000000   0.000000   0.000000   0.000000   0.000000   0.000000   0.000000   0.000000   0.000000   0.000000   0.000000   0.000000   0.000000   0.000000   0.000000   0.000000   0.000000   0.000000   0.000000   0.000000   0.000000   0.000000   0.000000   0.000000   0.000000   0.000000   0.000000   0.000000   0.000000   0.000000   0.000000   0.000000   0.000000
 -2.376199   0.925832   3.975300  -0.846896   0.919825   0.163388   0.939513  -0.057914  -0.104765   0.227746  -0.132483   0.094387   0.276718   0.638098  -0.135661   0.165092  -0.945077  -0.291822  -0.181173  -0.287248   1.995682   0.048704   3.026713  -0.009161   0.105265  -1.356551  -2.497952  -0.255375  -0.456900  -0.334217   0.149223  -0.331223  -1.923351   0.051152  -2.754842   0.006414   0.072632   1.617282   2.857708   0.432335   0.800410  -0.369259   2.264613   0.004999   0.033913  -1.558881   0.551908  -0.055562   0.587163   0.001340   0.011653   0.095545  -0.998349  -0.088655   1.603085  -0.001046  -0.001073  -0.213317  -0.950270  -0.746557   0.287313   0.001694  -0.002572
 -2.375572   0.926147   3.974597  -1.831644   2.261068   0.396007   1.869097  -0.220656  -0.190832   0.597629  -0.429965   0.164228   0.615106   1.279996  -0.246370   0.329612  -1.810670  -0.037279  -0.353043  -0.484880   4.283786   0.108436   5.955787  -0.016813   0.213681  -1.883173  -4.448554  -0.511781  -1.205397  -1.324042   0.255932  -0.947372  -4.246402   0.117554  -5.503216   0.011301   0.154409   2.160312   5.062456   1.089833   1.613487  -0.857269   4.771663   0.014961   0.073620  -2.997833   1.085903  -0.094274   1.132133   0.002975   0.022092   0.148915  -1.969388  -0.137027   3.281210  -0.003236   0.004748  -0.405258  -1.853090  -1.454709   0.601194   0.002848  -0.003484
 -2.374948   0.926291   3.973684  -2.817681   3.629514   0.663617   2.760704  -0.386922  -0.262462   0.973573  -0.757143   0.215805   0.933626   1.886436  -0.339840   0.494383  -2.512165   0.588185  -0.513738  -0.594107   6.706726   0.164677   8.725003  -0.022624   0.321481  -2.086473  -5.753251  -0.779189  -2.082930  -2.716170   0.316191  -1.673301  -6.759383   0.181669  -8.131258   0.013741   0.254185   2.201908   6.492041   1.749163   2.327861  -1.420167   7.056527   0.026695   0.098956  -4.438841   1.526026  -0.116853   0.239428  -0.001734  -0.001887   0.146875  -2.852865  -0.104955   4.838838  -0.005871   0.010836  -0.594215  -2.688242  -2.119180   0.887840   0.003304  -0.003600
 -2.374413   0.926071   3.972657  -3.787076   5.048406   0.988838   3.613296  -0.591753  -0.362053   1.337678  -1.110784   0.241338   1.224564   2.452731  -0.423758   0.659962  -3.087494   1.453830  -0.661822  -0.645203   9.175756   0.210965  11.331107  -0.027117   0.427850  -2.130825  -6.553857  -1.060238  -3.017733  -4.335871   0.333334  -2.445584  -9.338162   0.235673 -10.618908   0.014158   0.366660   2.001190   7.336575   2.393652   3.067702  -1.960739   9.197736   0.037035   0.117413  -5.772032   2.041020  -0.086869  -0.394809  -0.003590  -0.016311   0.097945  -3.691801  -0.040685   6.271334  -0.008313   0.016635  -0.827974  -3.484919  -2.746716   0.695954   0.002130  -0.002582
 -2.373956   0.925324   3.971587  -4.739139   6.459766   1.371659   4.430183  -0.807111  -0.487771   1.689930  -1.466552   0.235408   1.490868   2.981161  -0.504507   0.825251  -3.566330   2.454288  -0.797446  -0.659052  11.622121   0.244974  13.777143  -0.030669   0.531762  -2.087676  -6.999910  -1.353907  -3.958850  -6.074004   0.312807  -3.223247 -11.908434   0.276496 -12.960271   0.013045   0.483289   1.684219   7.769928   3.004529   3.766338  -2.465507  11.189936   0.045110   0.128159  -7.022628   2.542659  -0.035641  -1.051099  -0.004603  -0.028050   0.018878  -4.470470   0.046267   7.589499  -0.010431   0.021557  -1.059576  -4.226391  -3.337543   0.479175   0.001295  -0.001975
 -2.373545   0.923971   3.970511  -5.678223   7.809862   1.810767   5.217105  -1.010538  -0.637233   2.034046  -1.803146   0.197265   1.736297   3.474371  -0.584050   0.987936  -3.968025   3.516952  -0.922023  -0.647817  13.999745   0.266926  16.069683  -0.033480   0.632751  -1.992950  -7.213491  -1.656071  -4.871489  -7.860324   0.261302  -3.978729 -14.424303   0.303857 -15.155168   0.010890   0.596479   1.323125   7.923847   3.557782   4.409676  -2.939971  13.020919   0.050615   0.131786  -8.206960   3.013227   0.030180  -1.863591  -0.005225  -0.040011  -0.067479  -5.199804   0.137434   8.808634  -0.012133   0.025032  -1.310205  -4.925929  -3.895596   0.031164   0.000484  -0.001588
 -2.373019   0.921959   3.968533  -5.928724   8.804323   2.186712   5.497427  -0.968563  -0.738634   2.160280  -2.073237   0.112395   1.877928   3.729371  -0.556779   1.100391  -4.286145   4.186657  -0.818924  -0.646481  16.092915   0.276329  18.486126  -0.039623   0.537678  -2.022587  -6.744383  -1.792071  -5.584819  -9.005893   0.374284  -4.710556 -17.364420   0.339511 -17.804620   0.015897   0.556684   1.177607   7.673242   3.174060   4.978767  -3.393553  14.795180   0.053445   0.126436  -9.438193   3.494989  -0.141710  -2.553690  -0.006565  -0.044285  -0.784502  -5.868784   0.021611   9.614656  -0.011195   0.022865  -0.660240  -5.783922  -3.997168  -3.964887   0.003830   0.014260
 -2.372475   0.920788   3.965964  -6.060346   9.683315   2.712580   5.797534  -0.905754  -0.946958   2.248584  -2.297514  -0.045986   1.984906   3.958602  -0.517892   1.190295  -4.521101   4.738797  -0.736458  -0.596389  17.973493   0.274565  20.762756  -0.046056   0.459883  -1.952388  -6.382545  -1.928212  -6.268202 -10.092783   0.448610  -5.421432 -20.116639   0.358512 -20.296188   0.020739   0.540754   0.897540   7.340240   2.671446   5.482973  -3.996567  16.385810   0.053845   0.117275 -10.554096   3.891126  -0.321045  -2.742649  -0.005888  -0.038348  -1.450516  -6.468102  -0.538355  10.429491  -0.008582   0.020398  -0.662338  -6.604170  -4.063707  -4.224155   0.002723   0.012616
 -2.372314   0.919936   3.963040  -6.125691  10.691291   3.164613   6.109191  -0.904213  -1.090696   2.344391  -2.544796  -0.193822   2.084510   4.169711  -0.475481   1.268720  -4.720334   5.153104  -0.667322  -0.529863  19.663958   0.264694  22.895964  -0.052628   0.393345  -1.835059  -6.131782  -2.079394  -6.949096 -11.084236   0.481151  -6.122202 -22.678849   0.363660 -22.634995   0.024283   0.535373   0.560739   6.998749   2.207324   5.950463  -4.477234  17.944378   0.053625   0.110771 -11.552234   4.261869  -0.493545  -2.254563  -0.003346  -0.022884  -2.158501  -6.962229  -1.049684  11.054948  -0.006364   0.019095  -0.424306  -7.269383  -4.097373  -4.573103   0.001751   0.010562
 -2.372550   0.919229   3.959893  -6.142168  11.761914   3.551787   6.427160  -0.916512  -1.200135   2.449770  -2.790878  -0.329367   2.181937   4.366527  -0.431039   1.336568  -4.894415   5.457636  -0.610390  -0.456248  21.185345   0.249752  24.891976  -0.058710   0.335306  -1.696298  -5.991652  -2.244182  -7.609575 -11.977271   0.477129  -6.798839 -25.051602   0.358279 -24.827211   0.025914   0.536721   0.193125   6.695685   1.808702   6.387856  -4.861683  19.421343   0.052634   0.105092 -12.481488   4.612102  -0.647593  -1.794964  -0.001474  -0.010956  -2.906739  -7.407109  -1.501601  11.589266  -0.004657   0.018103  -0.081651  -7.878174  -4.130733  -4.942604   0.000968   0.008424
 -2.373161   0.918579   3.956608  -6.115245  12.818757   3.887081   6.745613  -0.911198  -1.295787   2.561014  -3.008949  -0.461176   2.277581   4.550910  -0.387762   1.392783  -5.044033   5.673998  -0.565609  -0.376736  22.558158   0.232002  26.759594  -0.063846   0.284520  -1.542680  -5.946545  -2.414076  -8.229756 -12.776542   0.445766  -7.435737 -27.245031   0.345259 -26.877112   0.025711   0.540485  -0.179297   6.447001   1.469386   6.798248  -5.181094  20.814479   0.050946   0.099171 -13.348513   4.942594  -0.784639  -1.376344  -0.000144  -0.002306  -3.677802  -7.836437  -1.900234  12.054173  -0.003439   0.016913   0.312203  -8.464919  -4.159363  -5.309910   0.000423   0.006655
